<svg width="130" height="79" viewBox="0 0 130 79" fill="none" xmlns="http://www.w3.org/2000/svg">
<path d="M109.205 3.58933C108.825 5.06501 108.445 6.32987 108.369 6.45034C108.268 6.5708 107.406 6.3901 106.418 6.05883C104.037 5.27582 103.859 5.36617 105.709 6.35999C110.016 8.73914 110.447 14.7623 106.925 23.2851C106.038 25.5137 103.733 30.0009 103.251 30.4828C103.175 30.5731 102.719 31.2357 102.238 31.9886C100.667 34.4581 95.3208 40.6619 94.2819 41.2341C93.1418 41.8364 91.8496 43.0411 91.8496 43.4627C91.8496 43.6133 92.8377 43.7337 94.0792 43.7337H96.2835L93.9779 45.0588C92.7111 45.7816 91.5709 46.5345 91.4696 46.7453C91.3175 47.0465 91.3682 47.0766 91.7483 46.8959C92.0016 46.7754 93.4458 46.1129 94.9407 45.4503L97.6771 44.2457L98.5639 44.8179C99.704 45.5407 99.6787 45.8418 98.4625 45.8418C97.1957 45.8418 95.9035 46.143 95.9035 46.4442C95.9035 46.5947 96.7903 47.2573 97.8798 47.9499C98.9439 48.6426 101.376 50.3893 103.251 51.8048C107.609 55.1175 110.396 56.7438 113.335 57.7376C115.438 58.4604 115.996 58.5507 118.783 58.4303C121.316 58.3098 122.203 58.1592 123.723 57.4967C126.485 56.3221 128.664 54.3044 129.652 52.0758C130.159 50.8411 130.108 50.3291 129.525 50.9314C128.917 51.5036 126.485 52.377 124.838 52.6179C123.065 52.8588 119.137 52.5276 119.34 52.1662C119.416 52.0156 119.999 51.594 120.683 51.2326C122.304 50.299 124.281 47.8596 125.142 45.7816C126.054 43.553 126.282 40.7523 125.725 38.7947L125.32 37.4094L126.257 36.6565L127.194 35.9036H125.421C124.179 35.9036 123.369 35.7229 122.583 35.2712C121.899 34.8797 121.316 34.7291 120.962 34.8496C120.455 35.0604 120.455 35.0905 120.81 35.3615C121.468 35.7832 121.316 36.2048 120.531 36.2048C118.175 36.2048 107.71 38.9152 103.859 40.5113C103.023 40.8727 102.719 40.8727 101.858 40.5113C101.3 40.2704 99.932 39.9994 98.8172 39.8789L96.7903 39.6681L98.0571 38.8249C100.008 37.4998 103.15 36.0241 105.455 35.3314C110.117 33.9762 113.867 33.8256 117.668 34.8797C118.681 35.1507 119.391 35.211 119.543 35.0303C120.506 33.8859 121.063 26.9592 120.48 23.2249C119.492 16.9909 115.387 10.787 110.295 7.86578C108.851 7.05265 108.699 6.17929 109.737 5.03489C111.182 3.43875 112.6 3.46887 114.197 5.03489C115.134 5.96848 115.869 5.96848 117.44 5.03489C118.884 4.16153 120.176 4.07119 121.291 4.76385C121.696 5.03489 121.975 5.09512 121.899 4.94454C121.823 4.76385 121.24 4.40246 120.607 4.1013C119.517 3.61945 119.416 3.61945 117.87 4.25188C115.616 5.15536 115.058 5.09512 113.969 3.80014C113.057 2.71597 113.031 2.68586 111.435 2.86655L109.813 3.04725L109.991 2.02331C110.295 0.0958961 109.889 0.939139 109.205 3.58933ZM119.568 38.7947C120.607 39.2766 119.34 40.6017 115.869 42.7098C114.805 43.3422 113.969 43.9144 114.019 43.9747C114.197 44.1855 116.68 43.0411 119.441 41.4449C121.012 40.5415 122.355 39.8488 122.431 39.9391C122.634 40.1801 121.519 42.1376 120.708 42.9507C120.303 43.3723 119.543 43.8542 119.011 44.0349C117.693 44.4565 114.526 44.7577 113.969 44.5167C113.715 44.3963 113.006 44.2457 112.372 44.1855C111.46 44.1252 107.786 42.9206 105.81 42.0774C105.227 41.8063 105.557 41.6859 108.724 40.7523C114.754 39.0055 118.529 38.3129 119.568 38.7947Z" fill="white"/>
<path d="M107.432 9.76307C106.976 11.5098 103.53 27.0194 103.606 27.1098C103.834 27.3507 108.065 11.1785 108.065 10.0642C108.065 9.37157 107.609 9.16076 107.432 9.76307Z" fill="white"/>
<path d="M13.3563 48.2511C9.55575 49.8774 5.40052 55.6897 4.79244 60.2372C4.58975 61.8032 5.2485 64.9052 6.59135 68.5793C7.22477 70.2959 7.75684 72.2233 7.80752 72.8558L7.85819 74.0002L6.66736 74.0905C5.19783 74.211 3.85498 73.428 2.15741 71.5608C1.49866 70.838 0.890576 70.2357 0.814565 70.2357C0.713218 70.2357 0.459851 70.567 0.257156 70.9585C-0.376263 72.1029 0.181146 73.8797 1.70135 75.5059C3.90565 77.855 7.60482 78.7283 9.93581 77.4635C12.5202 76.0781 12.6722 73.3677 10.4172 67.8565C8.61829 63.4295 8.49161 62.5561 9.35306 60.448C10.0878 58.6712 12.1908 56.1716 13.6856 55.3585C15.3072 54.4249 15.2819 55.0874 13.559 58.7615C12.0894 61.8635 11.9881 62.1646 12.2921 62.9778C12.6722 64.1222 13.635 65.1762 14.091 64.9654C14.4964 64.7546 15.2819 63.4897 18.0689 58.6712C19.8171 55.6295 19.9945 55.2079 19.9945 53.9129C19.9945 52.6781 19.8425 52.2866 18.9304 50.9917C18.3476 50.1785 17.8662 49.4256 17.8662 49.3052C17.8662 48.9438 17.1568 48.2511 16.4727 47.95C15.5352 47.5283 14.9018 47.5886 13.3563 48.2511Z" fill="white"/>
<path d="M79.5613 48.8836C76.4956 49.245 74.4179 49.7871 74.0886 50.2388C73.6578 50.8411 74.2406 52.0457 75.3807 52.9492C75.9888 53.4612 76.6222 53.672 77.4583 53.672C78.3451 53.672 78.6745 53.7925 78.6745 54.0936C78.6745 54.4851 77.9397 56.4426 75.254 63.1585C72.7204 69.5129 70.7694 74.6326 70.5414 75.4759C70.3641 76.2589 70.4401 76.4697 71.2255 77.3732C71.7069 77.9152 72.3403 78.367 72.5684 78.367C73.0751 78.367 73.0751 78.367 77.661 67.6759C80.9548 59.9963 81.3602 59.1531 83.0578 56.021C84.502 53.3106 84.9327 53.0697 88.0744 53.0697C89.6707 53.0697 90.0761 52.9793 90.4561 52.4674C90.9628 51.8048 90.8362 50.3291 90.1774 49.2149C89.7973 48.5824 89.6707 48.5523 85.6928 48.5824C83.4378 48.6125 80.6761 48.733 79.5613 48.8836Z" fill="white"/>
<path d="M66.2848 51.8349C66.1075 51.9855 65.246 53.7021 64.3846 55.6295L62.839 59.1832L60.8627 59.1229C59.0638 59.0627 58.9118 59.0928 58.9118 59.665C58.9118 60.7492 59.4439 61.7129 60.356 62.2249L61.2175 62.7067L60.7107 63.7307C59.9506 65.1762 60.052 65.4473 60.9134 64.2426C61.5975 63.2789 62.2056 63.1886 62.2056 64.0318C62.2056 64.3932 58.4304 70.9283 57.7463 71.7415C57.3916 72.133 57.3663 72.1029 57.5436 71.2897C57.6196 70.7778 57.873 70.0851 58.0504 69.7237C58.7598 68.3685 58.3544 68.76 55.8207 71.8017C53.059 75.1144 51.5895 76.2588 49.9933 76.2588C48.9798 76.2588 48.7771 75.9276 48.7771 74.3013C48.7771 73.5484 48.9291 73.187 49.3598 72.916C50.6267 72.1029 54.3259 69.1515 55.6434 67.8565C58.3544 65.2063 58.6838 63.7909 56.8089 62.4959C56.3528 62.1646 55.618 61.3214 55.2126 60.6287C54.7059 59.7855 54.3005 59.394 53.8698 59.394C52.8563 59.394 51.1334 60.8094 49.8159 62.7669C48.5491 64.604 46.8515 68.0372 47.0542 68.3083C47.1302 68.3685 47.941 67.2843 48.8531 65.8689C49.7906 64.4534 50.652 63.309 50.7787 63.309C51.4628 63.309 51.1841 64.4534 50.0439 66.411C49.3345 67.6156 48.2957 69.4225 47.6876 70.4465C46.3194 72.8557 45.8634 73.1268 46.0914 71.3801L46.2688 70.1152L44.1911 72.7353C43.0763 74.1808 41.9868 75.3554 41.7841 75.3554C40.8467 75.3554 41.1761 73.3376 42.5442 70.6874C42.9496 69.8743 43.3804 69.1214 43.4564 69.031C44.0391 68.4287 45.9901 64.9353 45.9901 64.4835C45.9901 63.8511 45.2806 63.2488 43.9124 62.7067C42.8736 62.3152 42.7976 62.1044 43.2283 60.6287C43.8871 58.37 42.5189 57.5569 40.1626 58.8218C38.8197 59.5446 38.2117 60.1469 37.7049 61.3214C37.2235 62.4357 37.6543 63.7608 38.7184 64.4233C39.4785 64.8751 39.5038 64.8751 40.0612 64.0619C40.6693 63.1283 41.3027 63.2789 41.0747 64.3029C40.9987 64.6642 41.0747 65.116 41.2014 65.2967C41.4041 65.5677 41.2774 66.1399 40.8213 67.2542C39.7825 69.6936 38.389 74.9337 38.389 76.3492C38.4144 79.8727 40.6947 79.3608 44.2418 74.994L45.9394 72.9461L46.0914 73.9399C46.4208 75.9577 48.8024 78.3669 50.5 78.3669C51.5895 78.3669 54.0471 76.4395 55.8207 74.211L57.4169 72.1932L57.2396 73.4279C56.9609 75.5662 58.4557 77.7646 60.204 77.7646C61.0654 77.7646 63.9538 74.0002 67.1209 68.7299C70.5161 63.0681 70.4654 62.0442 66.9942 67.1337C65.7021 69.0913 64.1565 71.2897 63.5991 72.0125C62.5603 73.3978 60.584 75.0542 60.0013 75.0542C59.3932 75.0542 59.6719 73.1569 60.584 71.0187C61.2681 69.4527 64.0805 63.821 64.866 62.4959C64.8913 62.4357 65.6007 62.3152 66.4368 62.2249C68.6918 61.9237 68.8692 61.6828 67.6783 60.4781L66.6902 59.4542L67.577 58.0086C68.0584 57.1955 68.7171 56.021 69.0212 55.3886L69.6039 54.2442L69.0212 53.2503C68.7171 52.7083 68.0837 52.1059 67.653 51.8951C66.7155 51.5036 66.7409 51.5036 66.2848 51.8349ZM55.3647 64.092C55.3647 64.604 53.6418 67.1036 52.1469 68.7299C49.4105 71.6812 49.0051 71.7415 50.196 69.0009C50.9561 67.194 52.755 64.9654 53.9205 64.3631C54.7819 63.9113 55.3647 63.7909 55.3647 64.092Z" fill="white"/>
<path d="M105.405 58.7917C103.277 60.0264 102.39 62.4056 103.505 63.821C104.29 64.8449 104.974 64.9654 105.658 64.2125C106.342 63.4295 106.95 63.6403 106.545 64.5137C106.216 65.2666 106.216 65.4171 106.672 65.4171C106.976 65.4171 106.95 65.6882 106.444 66.8627C104.467 71.5005 103.429 77.4032 104.391 78.367C106.038 79.9932 109.357 76.6805 114.146 68.6998C115.54 66.3507 116.68 64.2426 116.68 64.0017C116.68 63.4295 116.097 63.5199 115.742 64.1824C114.526 66.5013 107.938 75.0542 107.381 75.0542C106.849 75.0542 107.001 73.5183 107.71 71.8619C108.091 70.9886 109.079 69.1515 109.94 67.7662C110.827 66.411 111.612 65.0256 111.688 64.7245C111.891 64.0619 111.232 63.3693 109.813 62.7067C109.256 62.4357 108.8 62.1345 108.8 62.0141C108.8 61.8936 108.876 61.2009 108.977 60.448C109.079 59.5446 109.028 58.9422 108.825 58.6411C108.395 58.0087 106.621 58.099 105.405 58.7917Z" fill="white"/>
<path d="M32.4349 59.0627C31.5481 59.5145 27.9249 64.5438 26.9621 66.682C26.4807 67.7361 26.9368 67.194 28.153 65.2666C29.4451 63.2488 30.0279 62.8272 30.0279 63.9415C30.0279 64.5438 27.5702 69.0311 25.7966 71.621C24.9099 72.916 24.7832 73.8496 25.2392 75.265C25.8727 77.2527 28.1783 79.0897 29.6478 78.7585C31.5481 78.3067 33.9298 75.8673 36.6408 71.5307C37.8063 69.6635 38.0343 69.1515 37.7049 69.0009C37.4262 68.8805 36.4888 69.8141 34.7405 71.8921C31.9281 75.265 30.4079 76.3492 28.8371 76.1986C28.0516 76.1384 27.8489 75.9878 27.7983 75.4156C27.5702 73.6689 30.0786 67.8264 31.1427 67.5855C31.5481 67.465 31.5988 67.5855 31.4467 68.5191C31.2694 69.6334 31.5481 70.2056 32.6122 70.8681C33.2203 71.2596 33.1697 71.2897 33.6764 69.7839C33.9044 69.1214 34.6645 67.5554 35.374 66.2905L36.6408 64.0017L36.0834 61.9538C35.3233 59.2735 34.0818 58.2797 32.4349 59.0627Z" fill="white"/>
<path d="M83.2352 59.8758C81.5123 61.6225 79.2573 66.1098 78.1678 70.0249C77.4584 72.6449 77.3824 75.8372 78.0158 76.9816C79.4093 79.5415 81.9937 78.3368 84.882 73.7592C85.8702 72.2233 86.2249 71.8619 87.0103 71.7113C87.5171 71.621 88.1758 71.4403 88.4545 71.3198C88.9866 71.109 89.0119 71.1693 88.8853 73.6086C88.7586 75.8673 88.8092 76.1986 89.316 76.9214C89.62 77.4032 90.1014 77.7646 90.4308 77.7646C91.1149 77.7646 92.9898 76.3793 93.9779 75.1144L94.7127 74.1808L95.2701 75.6264C95.8275 77.0418 96.689 78.0658 97.3477 78.0658C97.9558 78.0658 99.5014 76.1384 101.63 72.7654C102.795 70.8982 103.758 69.3021 103.758 69.1816C103.758 69.0913 103.606 69.031 103.403 69.031C103.201 69.031 102.998 68.8805 102.947 68.6998C102.896 68.489 102.086 69.4225 101.148 70.7476C100.236 72.0727 99.0706 73.5183 98.5639 73.97L97.6771 74.7832V74.0001C97.6771 73.0063 98.8933 69.9044 100.439 66.953C101.959 64.0619 102.035 63.821 101.579 63.0681C101.224 62.4658 99.8307 61.8032 98.8933 61.8032C98.4119 61.8032 96.5876 65.9592 95.6755 69.0913C94.4847 73.2171 91.1656 76.9515 90.8869 74.5121C90.7348 73.2171 91.5963 71.0488 93.9779 66.8025C96.765 61.8334 96.8917 61.4418 96.1062 60.7793C95.2701 60.0866 92.9898 60.1469 92.3817 60.8696C91.875 61.472 89.9747 67.0133 90.1268 67.4951C90.1521 67.6758 90.8615 66.8627 91.6723 65.6882C93.0405 63.7909 93.8766 63.0982 93.8766 63.9113C93.8766 64.7245 90.8869 69.5129 89.7214 70.5669C89.2653 70.9585 89.24 70.9283 89.392 69.7237L89.5693 68.4588L88.8853 68.9106C88.2012 69.3021 87.5424 69.4527 87.5424 69.2117C87.5424 69.1214 87.9478 68.1276 88.4292 66.9832C89.7467 63.9113 89.8227 63.038 88.8092 61.8635C88.3785 61.3214 87.7704 60.8998 87.4664 60.8998C87.1624 60.8998 86.5289 60.4781 86.0475 59.9963C84.9834 58.882 84.274 58.8519 83.2352 59.8758ZM84.35 66.2303C84.2486 66.5314 84.1473 67.5855 84.1219 68.5793C84.0966 70.1453 83.9446 70.6874 83.1085 72.2835C81.9176 74.5724 80.2708 76.4696 79.8654 75.9878C79.0799 75.0542 81.0309 69.3924 82.9058 67.0735C84.0206 65.6882 84.73 65.2967 84.35 66.2303Z" fill="white"/>
<path d="M20.5013 59.7855C17.2075 62.0743 13.787 69.4527 14.1164 73.5484C14.3444 76.289 16.5994 78.6079 18.677 78.2766C20.8813 77.9152 24.2765 74.2712 25.0112 71.4705L25.4419 69.8442L23.3643 72.3137C20.1719 76.1083 17.3595 77.343 16.7768 75.2651C16.4474 74.0604 16.7261 73.0967 17.5369 72.6751C18.2463 72.3137 22.0975 69.3322 23.0349 68.4288C23.3137 68.1878 24.0738 67.3747 24.7578 66.6519C26.3541 64.9353 26.3794 63.9114 24.8592 62.6766C24.3271 62.255 23.567 61.3515 23.2123 60.7191C22.4775 59.4241 21.4894 59.0928 20.5013 59.7855ZM23.187 64.1523C23.187 64.3029 22.8323 65.0558 22.4015 65.8388C21.5654 67.3446 17.9169 71.1994 17.5622 70.9585C17.2328 70.7176 18.5757 67.8867 19.7158 66.411C21.0333 64.6944 23.187 63.3091 23.187 64.1523Z" fill="white"/>
</svg>
