<svg width="100" height="60" viewBox="0 0 100 60" fill="none" xmlns="http://www.w3.org/2000/svg">
<path d="M83.9494 2.01546C83.6575 3.15059 83.3657 4.12357 83.3073 4.21623C83.2295 4.30889 82.568 4.1699 81.8093 3.91507C79.9805 3.31276 79.8443 3.38225 81.2645 4.14673C84.5719 5.97685 84.9027 10.6101 82.1984 17.166C81.5175 18.8803 79.747 22.3321 79.3774 22.7027C79.319 22.7722 78.9688 23.2819 78.5992 23.861C77.3929 25.7606 73.2879 30.5328 72.4902 30.973C71.6147 31.4363 70.6225 32.3629 70.6225 32.6873C70.6225 32.8031 71.3813 32.8958 72.3346 32.8958H74.0272L72.2567 33.9151C71.284 34.4711 70.4085 35.0502 70.3307 35.2124C70.2139 35.444 70.2529 35.4672 70.5447 35.3282C70.7392 35.2355 71.8482 34.7259 72.996 34.2162L75.0972 33.2896L75.7781 33.7297C76.6536 34.2857 76.6342 34.5174 75.7003 34.5174C74.7276 34.5174 73.7353 34.749 73.7353 34.9807C73.7353 35.0965 74.4163 35.6062 75.2529 36.139C76.07 36.6718 77.9377 38.0155 79.3774 39.1043C82.7237 41.6525 84.8638 42.9035 87.1206 43.668C88.7354 44.224 89.1634 44.2935 91.3034 44.2008C93.249 44.1081 93.9299 43.9923 95.0972 43.4826C97.2178 42.5792 98.891 41.027 99.6498 39.3128C100.039 38.3629 99.9999 37.9691 99.5525 38.4324C99.0855 38.8726 97.2178 39.5444 95.9533 39.7297C94.5914 39.9151 91.5758 39.6602 91.7315 39.3823C91.7898 39.2664 92.2373 38.9421 92.7626 38.6641C94.0077 37.946 95.5252 36.0695 96.1867 34.4711C96.8871 32.7568 97.0622 30.6023 96.6342 29.0965L96.3229 28.0309L97.0427 27.4518L97.7626 26.8726H96.4007C95.4474 26.8726 94.8248 26.7336 94.2217 26.3861C93.6964 26.085 93.249 25.9691 92.9766 26.0618C92.5875 26.224 92.5875 26.2471 92.8599 26.4556C93.3657 26.7799 93.249 27.1043 92.6459 27.1043C90.8365 27.1043 82.8015 29.1892 79.8443 30.417C79.2023 30.695 78.9688 30.695 78.3073 30.417C77.8793 30.2317 76.8287 30.0232 75.9727 29.9305L74.4163 29.7684L75.389 29.1197C76.8871 28.1004 79.2996 26.9653 81.07 26.4324C84.6497 25.39 87.5291 25.2741 90.4474 26.085C91.2256 26.2935 91.7704 26.3398 91.8871 26.2008C92.6264 25.3205 93.0544 19.9923 92.6069 17.1197C91.8482 12.3243 88.6964 7.55214 84.7859 5.30503C83.677 4.67955 83.5603 4.00774 84.3579 3.12743C85.4669 1.89963 86.5564 1.92279 87.782 3.12743C88.5019 3.84557 89.0661 3.84557 90.2723 3.12743C91.3813 2.45561 92.3735 2.38611 93.2295 2.91893C93.5408 3.12743 93.7548 3.17376 93.6964 3.05793C93.6381 2.91893 93.1906 2.64094 92.7042 2.40928C91.8676 2.03862 91.7898 2.03862 90.6031 2.52511C88.8715 3.22009 88.4435 3.17376 87.6069 2.17762C86.9066 1.34364 86.8871 1.32048 85.6614 1.45947L84.4163 1.59847L84.5525 0.810825C84.7859 -0.6718 84.4746 -0.0231517 83.9494 2.01546ZM91.9066 29.0965C92.7042 29.4672 91.7315 30.4865 89.0661 32.1081C88.249 32.5946 87.6069 33.0348 87.6459 33.0811C87.782 33.2433 89.6887 32.3629 91.8093 31.1351C93.0155 30.4402 94.0466 29.9074 94.105 29.9768C94.2606 30.1622 93.4046 31.668 92.782 32.2935C92.4708 32.6178 91.8871 32.9884 91.4785 33.1274C90.4669 33.4518 88.035 33.6834 87.6069 33.4981C87.4124 33.4054 86.8676 33.2896 86.3813 33.2433C85.6809 33.1969 82.8599 32.2703 81.3424 31.6216C80.8949 31.4131 81.1478 31.3205 83.5797 30.6023C88.2101 29.2587 91.1089 28.7259 91.9066 29.0965Z" fill="white"/>
<path d="M82.5875 6.76449C82.2373 8.10812 79.5914 20.0386 79.6498 20.1081C79.8249 20.2934 83.0739 7.85329 83.0739 6.99615C83.0739 6.46333 82.7237 6.30117 82.5875 6.76449Z" fill="white"/>
<path d="M10.3502 36.3707C7.4319 37.6216 4.24124 42.0927 3.77431 45.5907C3.61867 46.7954 4.12451 49.1815 5.15564 52.0077C5.64202 53.3282 6.05058 54.8108 6.08949 55.2973L6.1284 56.1776L5.214 56.2471C4.0856 56.3398 3.05447 55.7375 1.75097 54.3012C1.24513 53.7452 0.778203 53.2819 0.719838 53.2819C0.642017 53.2819 0.447464 53.5367 0.291822 53.8378C-0.194559 54.7182 0.233456 56.085 1.40077 57.3359C3.09338 59.1429 5.93385 59.8147 7.72373 58.8417C9.70816 57.7761 9.8249 55.6911 8.09338 51.4517C6.71206 48.0463 6.61478 47.3745 7.27626 45.7529C7.84046 44.3861 9.45525 42.4633 10.6031 41.8378C11.8482 41.1197 11.8288 41.6294 10.5058 44.4556C9.37742 46.8417 9.2996 47.0734 9.53307 47.6988C9.8249 48.5792 10.5642 49.39 10.9144 49.2278C11.2257 49.0656 11.8288 48.0927 13.9689 44.3861C15.3113 42.0463 15.4475 41.722 15.4475 40.7259C15.4475 39.7761 15.3307 39.4749 14.6303 38.4788C14.1829 37.8533 13.8132 37.2741 13.8132 37.1815C13.8132 36.9035 13.2685 36.3707 12.7432 36.139C12.0233 35.8147 11.537 35.861 10.3502 36.3707Z" fill="white"/>
<path d="M61.1867 36.8571C58.8326 37.1351 57.2373 37.5521 56.9844 37.8996C56.6537 38.3629 57.1011 39.2896 57.9766 39.9846C58.4435 40.3784 58.9299 40.5405 59.5719 40.5405C60.2529 40.5405 60.5058 40.6332 60.5058 40.8649C60.5058 41.166 59.9416 42.6718 57.8793 47.8378C55.9338 52.7259 54.4358 56.6641 54.2607 57.3127C54.1245 57.9151 54.1828 58.0772 54.7859 58.7722C55.1556 59.1892 55.642 59.5367 55.8171 59.5367C56.2062 59.5367 56.2062 59.5367 59.7276 51.3127C62.2568 45.4054 62.568 44.7568 63.8715 42.3475C64.9805 40.2626 65.3112 40.0772 67.7237 40.0772C68.9494 40.0772 69.2606 40.0077 69.5525 39.6139C69.9416 39.1042 69.8443 37.9691 69.3385 37.112C69.0466 36.6255 68.9494 36.6023 65.8949 36.6255C64.1634 36.6487 62.0428 36.7413 61.1867 36.8571Z" fill="white"/>
<path d="M50.9922 39.1274C50.856 39.2432 50.1945 40.5637 49.533 42.0463L48.3462 44.7799L46.8287 44.7336C45.4474 44.6873 45.3307 44.7104 45.3307 45.1506C45.3307 45.9846 45.7392 46.7259 46.4396 47.1197L47.1011 47.4903L46.712 48.278C46.1283 49.39 46.2062 49.5984 46.8676 48.6718C47.3929 47.9305 47.8599 47.861 47.8599 48.5096C47.8599 48.7876 44.961 53.8147 44.4357 54.4401C44.1634 54.7413 44.1439 54.7181 44.2801 54.0927C44.3385 53.6988 44.533 53.166 44.6692 52.888C45.2139 51.8456 44.9027 52.1467 42.9571 54.4865C40.8365 57.0347 39.7081 57.9151 38.4824 57.9151C37.7042 57.9151 37.5486 57.6602 37.5486 56.4093C37.5486 55.8301 37.6653 55.5521 37.996 55.3436C38.9688 54.7181 41.8093 52.4479 42.821 51.4517C44.9027 49.4131 45.1556 48.3243 43.7159 47.3282C43.3657 47.0734 42.8015 46.4247 42.4902 45.8919C42.1011 45.2432 41.7898 44.9421 41.4591 44.9421C40.6809 44.9421 39.3579 46.0309 38.3462 47.5367C37.3735 48.9498 36.07 51.5907 36.2256 51.7992C36.284 51.8456 36.9066 51.0116 37.6069 49.9228C38.3268 48.834 38.9883 47.9537 39.0855 47.9537C39.6108 47.9537 39.3968 48.834 38.5213 50.3398C37.9766 51.2664 37.1789 52.6564 36.712 53.444C35.6614 55.2973 35.3112 55.5058 35.4863 54.1622L35.6225 53.1892L34.0272 55.2046C33.1711 56.3166 32.3346 57.2201 32.1789 57.2201C31.4591 57.2201 31.712 55.6679 32.7626 53.6293C33.0739 53.0039 33.4046 52.4247 33.463 52.3552C33.9104 51.8919 35.4085 49.2046 35.4085 48.8571C35.4085 48.3707 34.8638 47.9073 33.8132 47.4903C33.0155 47.1892 32.9571 47.027 33.2879 45.8919C33.7937 44.1544 32.7431 43.529 30.9338 44.5019C29.9027 45.0579 29.4357 45.5212 29.0466 46.4247C28.677 47.2818 29.0077 48.3012 29.8248 48.8108C30.4085 49.1583 30.428 49.1583 30.856 48.5328C31.3229 47.8147 31.8093 47.9305 31.6342 48.7181C31.5758 48.9961 31.6342 49.3436 31.7315 49.4826C31.8871 49.6911 31.7898 50.1313 31.4396 50.9884C30.642 52.8649 29.5719 56.8957 29.5719 57.9845C29.5914 60.695 31.3424 60.3012 34.0661 56.9421L35.3696 55.3668L35.4863 56.1313C35.7392 57.6834 37.568 59.5367 38.8715 59.5367C39.7081 59.5367 41.5953 58.054 42.9571 56.3398L44.1828 54.7876L44.0466 55.7374C43.8326 57.3822 44.9805 59.0734 46.3229 59.0734C46.9844 59.0734 49.2023 56.1776 51.6342 52.1235C54.2412 47.7683 54.2023 46.9807 51.5369 50.8957C50.5447 52.4015 49.3579 54.0927 48.9299 54.6486C48.1322 55.7143 46.6147 56.9884 46.1673 56.9884C45.7003 56.9884 45.9143 55.529 46.6147 53.8842C47.14 52.6795 49.2996 48.3475 49.9027 47.3282C49.9221 47.2818 50.4669 47.1892 51.1089 47.1197C52.8404 46.888 52.9766 46.7027 52.0622 45.7761L51.3034 44.9884L51.9844 43.8764C52.354 43.251 52.8599 42.3475 53.0933 41.861L53.5408 40.9807L53.0933 40.2162C52.8599 39.7992 52.3735 39.3359 52.0427 39.1737C51.3229 38.8726 51.3424 38.8726 50.9922 39.1274ZM42.6069 48.556C42.6069 48.9498 41.284 50.8726 40.1361 52.1235C38.035 54.3938 37.7237 54.4401 38.6381 52.332C39.2217 50.9421 40.6031 49.2278 41.498 48.7645C42.1595 48.417 42.6069 48.3243 42.6069 48.556Z" fill="white"/>
<path d="M81.0311 44.4788C79.3969 45.4286 78.716 47.2587 79.572 48.3475C80.1751 49.1352 80.7004 49.2278 81.2257 48.6487C81.751 48.0463 82.2179 48.2085 81.9066 48.8803C81.6537 49.4595 81.6537 49.5753 82.0039 49.5753C82.2374 49.5753 82.2179 49.7838 81.8288 50.6873C80.3113 54.2548 79.5136 58.7954 80.2529 59.5367C81.5175 60.7877 84.0662 58.2394 87.7432 52.1004C88.8132 50.2935 89.6887 48.6718 89.6887 48.4865C89.6887 48.0463 89.2412 48.1158 88.9689 48.6255C88.035 50.4093 82.9767 56.9884 82.5486 56.9884C82.1401 56.9884 82.2568 55.807 82.8016 54.5328C83.0934 53.861 83.8521 52.4479 84.5136 51.3823C85.1946 50.3398 85.7977 49.2741 85.856 49.0425C86.0117 48.5328 85.5058 48 84.4163 47.4904C83.9883 47.2819 83.6381 47.0502 83.6381 46.9575C83.6381 46.8649 83.6965 46.3321 83.7743 45.7529C83.8521 45.0579 83.8132 44.5946 83.6576 44.363C83.3269 43.8765 81.965 43.946 81.0311 44.4788Z" fill="white"/>
<path d="M24.9999 44.6873C24.319 45.0348 21.5369 48.9035 20.7976 50.5483C20.428 51.3591 20.7782 50.9421 21.712 49.4595C22.7042 47.9073 23.1517 47.583 23.1517 48.4402C23.1517 48.9035 21.2645 52.3552 19.9027 54.3475C19.2217 55.3436 19.1245 56.0618 19.4747 57.1506C19.961 58.6795 21.7315 60.0927 22.8599 59.8378C24.319 59.4903 26.1478 57.6139 28.2295 54.278C29.1245 52.8417 29.2996 52.4479 29.0466 52.3321C28.8326 52.2394 28.1128 52.9575 26.7704 54.556C24.6108 57.1506 23.4435 57.9846 22.2373 57.8687C21.6342 57.8224 21.4785 57.7066 21.4396 57.2664C21.2645 55.9228 23.1906 51.4286 24.0077 51.2433C24.319 51.1506 24.3579 51.2433 24.2412 51.9614C24.105 52.8185 24.319 53.2587 25.1361 53.7683C25.6031 54.0695 25.5642 54.0927 25.9533 52.9344C26.1284 52.4247 26.712 51.2201 27.2568 50.2471L28.2295 48.4865L27.8015 46.9112C27.2178 44.8494 26.2645 44.085 24.9999 44.6873Z" fill="white"/>
<path d="M64.0078 45.3127C62.6849 46.6564 60.9533 50.1081 60.1168 53.1197C59.572 55.1351 59.5137 57.5907 60 58.471C61.0701 60.4402 63.0545 59.5135 65.2724 55.9923C66.0312 54.8108 66.3035 54.5328 66.9066 54.417C67.2958 54.3475 67.8016 54.2085 68.0156 54.1158C68.4242 53.9537 68.4436 54 68.3463 55.8765C68.2491 57.6139 68.288 57.8687 68.6771 58.4247C68.9105 58.7954 69.2802 59.0734 69.5331 59.0734C70.0584 59.0734 71.4981 58.0077 72.2568 57.0348L72.821 56.3166L73.2491 57.4286C73.6771 58.5174 74.3386 59.305 74.8444 59.305C75.3113 59.305 76.4981 57.8224 78.1323 55.2278C79.0273 53.7915 79.7666 52.5637 79.7666 52.471C79.7666 52.4015 79.6498 52.3552 79.4942 52.3552C79.3386 52.3552 79.1829 52.2394 79.144 52.1004C79.1051 51.9382 78.4825 52.6564 77.7627 53.6757C77.0623 54.695 76.1673 55.807 75.7782 56.1544L75.0973 56.7799V56.1776C75.0973 55.4131 76.0312 53.027 77.2179 50.7568C78.3852 48.5328 78.4436 48.3475 78.0934 47.7683C77.821 47.305 76.751 46.7954 76.0312 46.7954C75.6615 46.7954 74.2607 49.9923 73.5603 52.4015C72.6459 55.5753 70.0973 58.4479 69.8833 56.5714C69.7666 55.5753 70.4281 53.9073 72.2568 50.6409C74.3969 46.8185 74.4942 46.5174 73.8911 46.0077C73.2491 45.4749 71.4981 45.5212 71.0312 46.0772C70.6421 46.5405 69.1829 50.8031 69.2996 51.1737C69.3191 51.3127 69.8638 50.6873 70.4864 49.7838C71.537 48.3243 72.179 47.7915 72.179 48.417C72.179 49.0425 69.8833 52.7259 68.9884 53.5367C68.6382 53.8378 68.6187 53.8147 68.7354 52.888L68.8716 51.9151L68.3463 52.2626C67.821 52.5637 67.3152 52.6795 67.3152 52.4942C67.3152 52.4247 67.6265 51.6602 67.9961 50.7799C69.0078 48.417 69.0662 47.7452 68.288 46.8417C67.9572 46.4247 67.4903 46.1004 67.2568 46.1004C67.0234 46.1004 66.537 45.7761 66.1673 45.4054C65.3502 44.5483 64.8055 44.5251 64.0078 45.3127ZM64.8638 50.2008C64.786 50.4324 64.7082 51.2432 64.6888 52.0077C64.6693 53.2124 64.5526 53.6293 63.9105 54.8571C62.9961 56.6178 61.7316 58.0772 61.4203 57.7066C60.8172 56.9884 62.3152 52.6332 63.7549 50.8494C64.6109 49.7838 65.1557 49.4826 64.8638 50.2008Z" fill="white"/>
<path d="M15.8365 45.2432C13.3073 47.0039 10.6809 52.6795 10.9338 55.8301C11.1089 57.9382 12.8404 59.722 14.4357 59.4672C16.1283 59.1892 18.7354 56.3861 19.2996 54.2317L19.6303 52.9807L18.035 54.8803C15.5836 57.7992 13.4241 58.749 12.9766 57.1506C12.7237 56.2239 12.9377 55.4826 13.5603 55.1583C14.105 54.8803 17.0622 52.5869 17.782 51.8919C17.9961 51.7066 18.5797 51.0811 19.105 50.5251C20.3307 49.2046 20.3501 48.417 19.1828 47.4672C18.7743 47.1429 18.1906 46.4479 17.9182 45.9614C17.354 44.9653 16.5953 44.7104 15.8365 45.2432ZM17.8988 48.6023C17.8988 48.7182 17.6264 49.2973 17.2957 49.8996C16.6536 51.0579 13.8521 54.0232 13.5797 53.8378C13.3268 53.6525 14.3579 51.4749 15.2334 50.3398C16.2451 49.0193 17.8988 47.9537 17.8988 48.6023Z" fill="white"/>
</svg>
