<svg width="75" height="45" viewBox="0 0 75 45" fill="none" xmlns="http://www.w3.org/2000/svg">
<path d="M62.9621 1.51158C62.7432 2.36293 62.5244 3.09266 62.4806 3.16216C62.4222 3.23166 61.9261 3.12741 61.3571 2.93629C59.9855 2.48455 59.8833 2.53668 60.9485 3.11003C63.429 4.48262 63.6771 7.95752 61.6489 12.8745C61.1382 14.1602 59.8104 16.749 59.5331 17.027C59.4893 17.0791 59.2267 17.4614 58.9495 17.8957C58.0448 19.3205 54.966 22.8996 54.3677 23.2297C53.7111 23.5772 52.967 24.2722 52.967 24.5154C52.967 24.6023 53.536 24.6718 54.251 24.6718H55.5205L54.1927 25.4363C53.4631 25.8533 52.8065 26.2876 52.7481 26.4093C52.6605 26.583 52.6897 26.6004 52.9086 26.4961C53.0545 26.4266 53.8862 26.0444 54.7471 25.6622L56.323 24.9672L56.8337 25.2973C57.4903 25.7143 57.4757 25.888 56.7753 25.888C56.0458 25.888 55.3016 26.0618 55.3016 26.2355C55.3016 26.3224 55.8123 26.7046 56.4397 27.1042C57.0526 27.5039 58.4534 28.5116 59.5331 29.3282C62.0429 31.2394 63.6479 32.1776 65.3405 32.751C66.5516 33.1679 66.8726 33.2201 68.4777 33.1506C69.9368 33.0811 70.4475 32.9942 71.323 32.612C72.9135 31.9344 74.1683 30.7703 74.7374 29.4846C75.0292 28.7722 75.0001 28.4768 74.6645 28.8243C74.3143 29.1544 72.9135 29.6583 71.965 29.7973C70.9436 29.9363 68.682 29.7452 68.7987 29.5367C68.8425 29.4498 69.1781 29.2066 69.572 28.9981C70.5059 28.4595 71.644 27.0521 72.1401 25.8533C72.6654 24.5676 72.7967 22.9517 72.4757 21.8224L72.2423 21.0232L72.7822 20.5888L73.322 20.1544H72.3006C71.5857 20.1544 71.1187 20.0502 70.6664 19.7896C70.2724 19.5637 69.9368 19.4768 69.7325 19.5463C69.4407 19.6679 69.4407 19.6853 69.645 19.8417C70.0244 20.0849 69.9368 20.3282 69.4845 20.3282C68.1275 20.3282 62.1012 21.8919 59.8833 22.8127C59.4018 23.0212 59.2267 23.0212 58.7306 22.8127C58.4096 22.6737 57.6216 22.5174 56.9796 22.4479L55.8123 22.3263L56.5419 21.8398C57.6654 21.0753 59.4748 20.2239 60.8026 19.8243C63.4874 19.0425 65.6469 18.9556 67.8357 19.5637C68.4193 19.7201 68.8279 19.7548 68.9154 19.6506C69.4699 18.9903 69.7909 14.9942 69.4553 12.8398C68.8862 9.24324 66.5224 5.66409 63.5895 3.97876C62.7578 3.50965 62.6703 3.00579 63.2685 2.34556C64.1002 1.42471 64.9174 1.44208 65.8366 2.34556C66.3765 2.88417 66.7997 2.88417 67.7043 2.34556C68.536 1.84169 69.2802 1.78957 69.9222 2.18918C70.1557 2.34556 70.3162 2.3803 70.2724 2.29343C70.2287 2.18918 69.893 1.98069 69.5283 1.80695C68.9008 1.52895 68.8425 1.52895 67.9524 1.89382C66.6537 2.41505 66.3327 2.3803 65.7053 1.6332C65.18 1.00772 65.1654 0.990343 64.2462 1.09459L63.3123 1.19884L63.4144 0.608104C63.5895 -0.503866 63.3561 -0.017379 62.9621 1.51158ZM68.93 21.8224C69.5283 22.1004 68.7987 22.8649 66.7997 24.0811C66.1868 24.4459 65.7053 24.7761 65.7345 24.8108C65.8366 24.9324 67.2666 24.2722 68.8571 23.3513C69.7617 22.8301 70.5351 22.4305 70.5788 22.4826C70.6956 22.6216 70.0536 23.751 69.5866 24.2201C69.3532 24.4633 68.9154 24.7413 68.609 24.8456C67.8502 25.0888 66.0263 25.2625 65.7053 25.1235C65.5594 25.054 65.1508 24.9672 64.786 24.9324C64.2608 24.8977 62.145 24.2027 61.0069 23.7162C60.6713 23.5598 60.8609 23.4903 62.6849 22.9517C66.1576 21.944 68.3318 21.5444 68.93 21.8224Z" fill="white"/>
<path d="M61.9407 5.07335C61.6781 6.08107 59.6936 15.029 59.7374 15.0811C59.8687 15.2201 62.3055 5.88995 62.3055 5.24709C62.3055 4.84748 62.0429 4.72586 61.9407 5.07335Z" fill="white"/>
<path d="M7.76267 27.278C5.57396 28.2162 3.18096 31.5695 2.83076 34.193C2.71403 35.0965 3.09341 36.8861 3.86676 39.0058C4.23154 39.9961 4.53796 41.1081 4.56715 41.473L4.59633 42.1332L3.91053 42.1853C3.06423 42.2548 2.29088 41.8031 1.31325 40.7259C0.933878 40.3089 0.583683 39.9614 0.539909 39.9614C0.481543 39.9614 0.335629 40.1525 0.218897 40.3784C-0.145889 41.0386 0.175123 42.0637 1.05061 43.0019C2.32006 44.3571 4.45041 44.861 5.79283 44.1313C7.28115 43.332 7.3687 41.7683 6.07006 38.5888C5.03407 36.0347 4.96111 35.5309 5.45722 34.3147C5.88038 33.2896 7.09146 31.8475 7.95236 31.3784C8.88621 30.8398 8.87162 31.222 7.8794 33.3417C7.0331 35.1313 6.97473 35.305 7.14983 35.7741C7.3687 36.4344 7.92318 37.0425 8.18582 36.9208C8.41929 36.7992 8.87162 36.0695 10.4767 33.2896C11.4835 31.5347 11.5856 31.2915 11.5856 30.5444C11.5856 29.832 11.4981 29.6062 10.9728 28.8591C10.6372 28.39 10.3599 27.9556 10.3599 27.8861C10.3599 27.6776 9.95139 27.278 9.55742 27.1042C9.01753 26.861 8.65275 26.8958 7.76267 27.278Z" fill="white"/>
<path d="M45.8902 27.6428C44.1246 27.8513 42.9281 28.1641 42.7384 28.4247C42.4904 28.7722 42.826 29.4672 43.4826 29.9884C43.8328 30.2838 44.1976 30.4054 44.6791 30.4054C45.1898 30.4054 45.3795 30.4749 45.3795 30.6486C45.3795 30.8745 44.9563 32.0038 43.4096 35.8784C41.9505 39.5444 40.8269 42.4981 40.6956 42.9845C40.5935 43.4363 40.6372 43.5579 41.0896 44.0791C41.3668 44.3919 41.7316 44.6525 41.8629 44.6525C42.1548 44.6525 42.1548 44.6525 44.7958 38.4845C46.6927 34.054 46.9262 33.5676 47.9038 31.7606C48.7355 30.1969 48.9835 30.0579 50.7929 30.0579C51.7121 30.0579 51.9456 30.0058 52.1645 29.7104C52.4563 29.3282 52.3833 28.4768 52.004 27.834C51.7851 27.4691 51.7121 27.4517 49.4213 27.4691C48.1226 27.4865 46.5322 27.556 45.8902 27.6428Z" fill="white"/>
<path d="M38.2442 29.3455C38.142 29.4324 37.6459 30.4228 37.1498 31.5347L36.2597 33.5849L35.1216 33.5502C34.0856 33.5154 33.998 33.5328 33.998 33.8629C33.998 34.4884 34.3045 35.0444 34.8298 35.3398L35.3259 35.6177L35.034 36.2085C34.5963 37.0425 34.6547 37.1988 35.1508 36.5038C35.5447 35.9479 35.8949 35.8957 35.8949 36.3822C35.8949 36.5907 33.7208 40.361 33.3268 40.8301C33.1226 41.056 33.108 41.0386 33.2101 40.5695C33.2539 40.2741 33.3998 39.8745 33.5019 39.666C33.9105 38.8842 33.677 39.11 32.2179 40.8649C30.6274 42.776 29.7811 43.4363 28.8619 43.4363C28.2782 43.4363 28.1615 43.2452 28.1615 42.3069C28.1615 41.8726 28.249 41.6641 28.4971 41.5077C29.2266 41.0386 31.357 39.3359 32.1157 38.5888C33.677 37.0598 33.8667 36.2432 32.787 35.4961C32.5243 35.305 32.1012 34.8185 31.8677 34.4189C31.5759 33.9324 31.3424 33.7066 31.0943 33.7066C30.5107 33.7066 29.5185 34.5232 28.7597 35.6525C28.0301 36.7123 27.0525 38.693 27.1692 38.8494C27.213 38.8842 27.6799 38.2587 28.2052 37.4421C28.7451 36.6255 29.2412 35.9652 29.3142 35.9652C29.7082 35.9652 29.5477 36.6255 28.891 37.7548C28.4825 38.4498 27.8842 39.4923 27.534 40.083C26.7461 41.473 26.4834 41.6293 26.6148 40.6216L26.7169 39.8919L25.5204 41.4035C24.8784 42.2374 24.251 42.915 24.1342 42.915C23.5943 42.915 23.784 41.751 24.572 40.222C24.8054 39.7529 25.0535 39.3185 25.0973 39.2664C25.4329 38.9189 26.5564 36.9035 26.5564 36.6428C26.5564 36.278 26.1478 35.9305 25.3599 35.6177C24.7617 35.3919 24.7179 35.2703 24.9659 34.4189C25.3453 33.1158 24.5574 32.6467 23.2004 33.3764C22.427 33.7934 22.0768 34.1409 21.785 34.8185C21.5078 35.4614 21.7558 36.2259 22.3687 36.6081C22.8064 36.8687 22.821 36.8687 23.142 36.3996C23.4922 35.861 23.857 35.9479 23.7257 36.5386C23.6819 36.7471 23.7257 37.0077 23.7986 37.112C23.9154 37.2683 23.8424 37.5984 23.5798 38.2413C22.9815 39.6486 22.179 42.6718 22.179 43.4884C22.1936 45.5212 23.5068 45.2259 25.5496 42.7066L26.5272 41.5251L26.6148 42.0984C26.8045 43.2625 28.1761 44.6525 29.1537 44.6525C29.7811 44.6525 31.1965 43.5405 32.2179 42.2548L33.1371 41.0907L33.035 41.8031C32.8745 43.0367 33.7354 44.305 34.7422 44.305C35.2383 44.305 36.9017 42.1332 38.7257 39.0927C40.6809 35.8262 40.6517 35.2355 38.6527 38.1718C37.9085 39.3011 37.0185 40.5695 36.6975 40.9865C36.0992 41.7857 34.9611 42.7413 34.6255 42.7413C34.2753 42.7413 34.4358 41.6467 34.9611 40.4131C35.355 39.5096 36.9747 36.2606 37.427 35.4961C37.4416 35.4614 37.8502 35.3919 38.3317 35.3398C39.6303 35.166 39.7325 35.027 39.0467 34.332L38.4776 33.7413L38.9883 32.9073C39.2656 32.4382 39.6449 31.7606 39.82 31.3957L40.1556 30.7355L39.82 30.1622C39.6449 29.8494 39.2801 29.5019 39.0321 29.3803C38.4922 29.1544 38.5068 29.1544 38.2442 29.3455ZM31.9552 36.417C31.9552 36.7123 30.963 38.1544 30.1021 39.0927C28.5262 40.7954 28.2928 40.8301 28.9786 39.249C29.4163 38.2066 30.4523 36.9208 31.1235 36.5733C31.6196 36.3127 31.9552 36.2432 31.9552 36.417Z" fill="white"/>
<path d="M60.7734 33.3591C59.5477 34.0714 59.037 35.444 59.679 36.2606C60.1313 36.8513 60.5253 36.9208 60.9193 36.4865C61.3132 36.0347 61.6634 36.1564 61.43 36.6602C61.2403 37.0946 61.2403 37.1814 61.5029 37.1814C61.678 37.1814 61.6634 37.3378 61.3716 38.0154C60.2335 40.6911 59.6352 44.0965 60.1897 44.6525C61.1381 45.5907 63.0496 43.6795 65.8074 39.0753C66.6099 37.7201 67.2665 36.5038 67.2665 36.3648C67.2665 36.0347 66.9309 36.0869 66.7267 36.4691C66.0263 37.8069 62.2325 42.7413 61.9115 42.7413C61.6051 42.7413 61.6926 41.8552 62.1012 40.8996C62.32 40.3957 62.8891 39.3359 63.3852 38.5367C63.8959 37.7548 64.3483 36.9556 64.392 36.7818C64.5088 36.3996 64.1294 36 63.3123 35.6177C62.9912 35.4614 62.7286 35.2876 62.7286 35.2181C62.7286 35.1486 62.7724 34.749 62.8307 34.3147C62.8891 33.7934 62.8599 33.4459 62.7432 33.2722C62.4951 32.9073 61.4737 32.9594 60.7734 33.3591Z" fill="white"/>
<path d="M18.75 33.5155C18.2393 33.7761 16.1527 36.6776 15.5983 37.9112C15.321 38.5193 15.5837 38.2066 16.2841 37.0946C17.0282 35.9305 17.3638 35.6873 17.3638 36.3301C17.3638 36.6776 15.9485 39.2664 14.9271 40.7606C14.4164 41.5077 14.3434 42.0463 14.6061 42.8629C14.9708 44.0096 16.2987 45.0695 17.145 44.8784C18.2393 44.6178 19.6109 43.2104 21.1722 40.7085C21.8434 39.6313 21.9747 39.3359 21.785 39.249C21.6245 39.1795 21.0847 39.7181 20.0778 40.917C18.4582 42.8629 17.5827 43.4884 16.678 43.4015C16.2257 43.3668 16.109 43.2799 16.0798 42.9498C15.9485 41.9421 17.393 38.5714 18.0059 38.4324C18.2393 38.3629 18.2685 38.4324 18.181 38.971C18.0788 39.6139 18.2393 39.944 18.8522 40.3263C19.2024 40.5521 19.1732 40.5695 19.465 39.7008C19.5963 39.3185 20.0341 38.4151 20.4426 37.6853L21.1722 36.3649L20.8512 35.1834C20.4134 33.6371 19.6985 33.0637 18.75 33.5155Z" fill="white"/>
<path d="M48.0059 33.9846C47.0136 34.9923 45.715 37.5811 45.0876 39.8398C44.679 41.3514 44.6352 43.1931 45 43.8533C45.8026 45.3301 47.2909 44.6351 48.9543 41.9942C49.5234 41.1081 49.7277 40.8996 50.18 40.8128C50.4718 40.7606 50.8512 40.6564 51.0117 40.5869C51.3181 40.4653 51.3327 40.5 51.2598 41.9073C51.1868 43.2104 51.216 43.4016 51.5078 43.8185C51.6829 44.0965 51.9601 44.305 52.1498 44.305C52.5438 44.305 53.6236 43.5058 54.1926 42.7761L54.6158 42.2375L54.9368 43.0714C55.2578 43.888 55.7539 44.4788 56.1333 44.4788C56.4835 44.4788 57.3736 43.3668 58.5992 41.4209C59.2705 40.3436 59.8249 39.4228 59.8249 39.3533C59.8249 39.3012 59.7374 39.2664 59.6206 39.2664C59.5039 39.2664 59.3872 39.1795 59.358 39.0753C59.3288 38.9537 58.8619 39.4923 58.322 40.2568C57.7967 41.0212 57.1255 41.8552 56.8337 42.1158L56.323 42.585V42.1332C56.323 41.5599 57.0234 39.7703 57.9134 38.0676C58.7889 36.3996 58.8327 36.2606 58.5701 35.8263C58.3658 35.4788 57.5633 35.0965 57.0234 35.0965C56.7461 35.0965 55.6955 37.4942 55.1703 39.3012C54.4845 41.6815 52.573 43.8359 52.4125 42.4286C52.3249 41.6815 52.821 40.4305 54.1926 37.9807C55.7977 35.1139 55.8706 34.888 55.4183 34.5058C54.9368 34.1062 53.6236 34.1409 53.2734 34.5579C52.9815 34.9054 51.8872 38.1023 51.9747 38.3803C51.9893 38.4846 52.3979 38.0155 52.8648 37.3378C53.6527 36.2433 54.1343 35.8436 54.1343 36.3128C54.1343 36.7819 52.4125 39.5444 51.7413 40.1525C51.4786 40.3784 51.464 40.361 51.5516 39.666L51.6537 38.9363L51.2598 39.1969C50.8658 39.4228 50.4864 39.5097 50.4864 39.3707C50.4864 39.3185 50.7199 38.7452 50.9971 38.085C51.7559 36.3128 51.7996 35.8089 51.216 35.1313C50.9679 34.8185 50.6177 34.5753 50.4426 34.5753C50.2675 34.5753 49.9027 34.3321 49.6255 34.0541C49.0127 33.4112 48.6041 33.3938 48.0059 33.9846ZM48.6479 37.6506C48.5895 37.8243 48.5312 38.4324 48.5166 39.0058C48.502 39.9093 48.4144 40.222 47.9329 41.1429C47.2471 42.4633 46.2987 43.5579 46.0652 43.2799C45.6129 42.7413 46.7364 39.4749 47.8162 38.1371C48.4582 37.3378 48.8668 37.112 48.6479 37.6506Z" fill="white"/>
<path d="M11.8775 33.9324C9.98059 35.2529 8.01075 39.5096 8.20044 41.8726C8.33176 43.4537 9.6304 44.7915 10.8269 44.6004C12.0964 44.3919 14.0516 42.2896 14.4748 40.6737L14.7228 39.7355L13.5263 41.1602C11.6878 43.3494 10.0681 44.0618 9.73254 42.8629C9.54285 42.1679 9.70335 41.612 10.1703 41.3687C10.5788 41.1602 12.7967 39.4401 13.3366 38.9189C13.4971 38.7799 13.9349 38.3108 14.3288 37.8938C15.2481 36.9035 15.2627 36.3127 14.3872 35.6004C14.0808 35.3571 13.643 34.8359 13.4388 34.471C13.0156 33.7239 12.4465 33.5328 11.8775 33.9324ZM13.4242 36.4517C13.4242 36.5386 13.2199 36.973 12.9718 37.4247C12.4903 38.2934 10.3892 40.5174 10.1849 40.3784C9.99518 40.2394 10.7685 38.6062 11.4251 37.7548C12.1839 36.7645 13.4242 35.9652 13.4242 36.4517Z" fill="white"/>
</svg>
