<svg width="150" height="90" viewBox="0 0 150 90" fill="none" xmlns="http://www.w3.org/2000/svg">
<path d="M125.924 3.02316C125.486 4.72586 125.049 6.18532 124.961 6.32431C124.844 6.46331 123.852 6.25482 122.714 5.87258C119.971 4.9691 119.767 5.07335 121.897 6.22007C126.858 8.96524 127.354 15.9151 123.298 25.749C122.276 28.3205 119.621 33.4981 119.066 34.054C118.979 34.1583 118.453 34.9228 117.899 35.7915C116.09 38.6409 109.932 45.7992 108.735 46.4594C107.422 47.1544 105.934 48.5444 105.934 49.0309C105.934 49.2046 107.072 49.3436 108.502 49.3436H111.041L108.385 50.8726C106.926 51.7066 105.613 52.5753 105.496 52.8185C105.321 53.166 105.379 53.2008 105.817 52.9923C106.109 52.8533 107.772 52.0888 109.494 51.3243L112.646 49.9344L113.667 50.5946C114.981 51.4286 114.951 51.7761 113.551 51.7761C112.092 51.7761 110.603 52.1235 110.603 52.471C110.603 52.6448 111.625 53.4093 112.879 54.2085C114.105 55.0077 116.907 57.0232 119.066 58.6564C124.086 62.4788 127.296 64.3552 130.681 65.5019C133.103 66.3359 133.745 66.4401 136.955 66.3011C139.874 66.1622 140.895 65.9884 142.646 65.2239C145.827 63.8687 148.337 61.5405 149.475 58.9691C150.058 57.5444 150 56.9537 149.329 57.6486C148.629 58.3089 145.827 59.3166 143.93 59.5946C141.887 59.8726 137.364 59.4903 137.597 59.0733C137.685 58.8996 138.356 58.4131 139.144 57.9961C141.012 56.9189 143.288 54.1042 144.28 51.7066C145.331 49.1351 145.593 45.9035 144.951 43.6448L144.485 42.0463L145.564 41.1776L146.644 40.3089H144.601C143.171 40.3089 142.237 40.1004 141.333 39.5791C140.545 39.1274 139.874 38.9537 139.465 39.0927C138.881 39.3359 138.881 39.3706 139.29 39.6834C140.049 40.1699 139.874 40.6564 138.969 40.6564C136.255 40.6564 124.202 43.7838 119.767 45.6255C118.804 46.0425 118.453 46.0425 117.461 45.6255C116.819 45.3475 115.243 45.0347 113.959 44.8957L111.625 44.6525L113.084 43.6795C115.331 42.1506 118.95 40.4479 121.605 39.6486C126.975 38.0849 131.294 37.9112 135.671 39.1274C136.839 39.4401 137.656 39.5096 137.831 39.3011C138.94 37.9807 139.582 29.9884 138.911 25.6795C137.772 18.4865 133.045 11.3282 127.179 7.95752C125.516 7.01929 125.341 6.01157 126.537 4.69111C128.2 2.84941 129.835 2.88416 131.673 4.69111C132.753 5.76833 133.599 5.76833 135.409 4.69111C137.072 3.68339 138.56 3.57914 139.844 4.37837C140.311 4.69111 140.632 4.76061 140.545 4.58686C140.457 4.37837 139.786 3.96138 139.057 3.61389C137.802 3.05791 137.685 3.05791 135.905 3.78764C133.307 4.83011 132.665 4.76061 131.411 3.2664C130.36 2.01543 130.331 1.98068 128.492 2.18918L126.625 2.39767L126.829 1.21621C127.179 -1.00773 126.712 -0.0347595 125.924 3.02316ZM137.86 43.6448C139.057 44.2008 137.597 45.7297 133.599 48.1622C132.374 48.8919 131.411 49.5521 131.469 49.6216C131.673 49.8649 134.533 48.5444 137.714 46.7027C139.523 45.6602 141.07 44.861 141.158 44.9652C141.391 45.2432 140.107 47.5019 139.173 48.4401C138.706 48.9266 137.831 49.4826 137.218 49.6911C135.7 50.1776 132.053 50.5251 131.411 50.2471C131.119 50.1081 130.302 49.9344 129.572 49.8649C128.521 49.7954 124.29 48.4054 122.014 47.4324C121.343 47.1197 121.722 46.9807 125.37 45.9035C132.315 43.888 136.664 43.0888 137.86 43.6448Z" fill="white"/>
<path d="M123.881 10.1467C123.356 12.1621 119.387 30.0579 119.475 30.1621C119.737 30.4401 124.611 11.7799 124.611 10.4942C124.611 9.69496 124.086 9.45172 123.881 10.1467Z" fill="white"/>
<path d="M15.5253 54.556C11.1479 56.4324 6.36192 63.139 5.66153 68.3861C5.42807 70.193 6.18682 73.7722 7.73351 78.0116C8.46309 79.9923 9.07593 82.2162 9.13429 82.9459L9.19266 84.2664L7.82106 84.3707C6.12846 84.5097 4.58176 83.6062 2.62651 81.4517C1.86776 80.6178 1.16737 79.9228 1.07982 79.9228C0.963086 79.9228 0.671257 80.305 0.437794 80.7568C-0.291778 82.0772 0.350245 84.1274 2.10122 86.0039C4.64013 88.7143 8.90083 89.722 11.5857 88.2625C14.5623 86.6641 14.7374 83.5367 12.1401 77.1776C10.0681 72.0695 9.92223 71.0618 10.9144 68.6293C11.7608 66.5791 14.1829 63.695 15.9047 62.7568C17.7724 61.6795 17.7432 62.444 15.7588 66.6834C14.0662 70.2625 13.9495 70.61 14.2997 71.5483C14.7374 72.8687 15.8464 74.0849 16.3716 73.8417C16.8386 73.5985 17.7432 72.139 20.9534 66.5791C22.967 63.0695 23.1713 62.583 23.1713 61.0888C23.1713 59.6641 22.9962 59.2124 21.9456 57.7181C21.2744 56.7799 20.7199 55.9112 20.7199 55.7722C20.7199 55.3552 19.9028 54.556 19.1148 54.2085C18.0351 53.722 17.3055 53.7915 15.5253 54.556Z" fill="white"/>
<path d="M91.7803 55.2857C88.2492 55.7027 85.8562 56.3282 85.4768 56.8494C84.9807 57.5444 85.6519 58.9343 86.9652 59.9768C87.6655 60.5675 88.3951 60.8108 89.3582 60.8108C90.3795 60.8108 90.7589 60.9498 90.7589 61.2973C90.7589 61.749 89.9126 64.0077 86.8192 71.7567C83.901 79.0888 81.6539 84.9961 81.3912 85.9691C81.187 86.8726 81.2745 87.1158 82.1792 88.1583C82.7336 88.7838 83.4632 89.305 83.7259 89.305C84.3095 89.305 84.3095 89.305 89.5916 76.9691C93.3854 68.1081 93.8523 67.1351 95.8076 63.5212C97.471 60.3938 97.9671 60.1158 101.586 60.1158C103.424 60.1158 103.891 60.0116 104.329 59.4208C104.913 58.6563 104.767 56.9536 104.008 55.6679C103.57 54.9382 103.424 54.9035 98.8426 54.9382C96.2453 54.9729 93.0644 55.1119 91.7803 55.2857Z" fill="white"/>
<path d="M76.4883 58.6911C76.284 58.8648 75.2918 60.8455 74.2996 63.0695L72.5194 67.1699L70.2432 67.1004C68.1712 67.0309 67.9961 67.0656 67.9961 67.7258C67.9961 68.9768 68.6089 70.0888 69.6595 70.6795L70.6517 71.2355L70.0681 72.417C69.1926 74.0849 69.3093 74.3977 70.3015 73.0077C71.0895 71.8957 71.7899 71.7915 71.7899 72.7645C71.7899 73.1814 67.4416 80.722 66.6537 81.6602C66.2451 82.1119 66.2159 82.0772 66.4202 81.139C66.5078 80.5482 66.7996 79.749 67.0039 79.332C67.821 77.7683 67.3541 78.2201 64.4358 81.7297C61.2548 85.5521 59.5622 86.8726 57.7237 86.8726C56.5564 86.8726 56.3229 86.4903 56.3229 84.6139C56.3229 83.7451 56.498 83.3282 56.9941 83.0154C58.4533 82.0772 62.714 78.6718 64.2315 77.1776C67.3541 74.1197 67.7334 72.4865 65.5739 70.9923C65.0486 70.61 64.2023 69.637 63.7354 68.8378C63.1517 67.8648 62.6848 67.4131 62.1887 67.4131C61.0214 67.4131 59.0369 69.0463 57.5194 71.305C56.0603 73.4247 54.105 77.3861 54.3385 77.6988C54.426 77.7683 55.3599 76.5174 56.4105 74.8841C57.4902 73.2509 58.4825 71.9305 58.6284 71.9305C59.4163 71.9305 59.0953 73.2509 57.7821 75.5096C56.9649 76.8996 55.7685 78.9845 55.0681 80.166C53.4922 82.9459 52.9669 83.2587 53.2295 81.2432L53.4338 79.7838L51.0408 82.8069C49.7568 84.4749 48.5019 85.8301 48.2684 85.8301C47.1887 85.8301 47.5681 83.5019 49.1439 80.444C49.6109 79.5058 50.107 78.637 50.1945 78.5328C50.8657 77.8378 53.1128 73.8069 53.1128 73.2857C53.1128 72.556 52.2957 71.861 50.7198 71.2355C49.5233 70.7838 49.4358 70.5405 49.9319 68.8378C50.6906 66.2316 49.1148 65.2934 46.4007 66.7529C44.8541 67.5868 44.1537 68.2818 43.57 69.637C43.0155 70.9228 43.5116 72.4517 44.7373 73.2162C45.6128 73.7374 45.642 73.7374 46.284 72.7992C46.9844 71.722 47.714 71.8957 47.4513 73.0772C47.3638 73.4942 47.4513 74.0154 47.5972 74.2239C47.8307 74.5367 47.6848 75.1969 47.1595 76.4826C45.963 79.2973 44.3579 85.3436 44.3579 86.9768C44.3871 91.0424 47.0136 90.4517 51.0992 85.4131L53.0544 83.0502L53.2295 84.1969C53.6089 86.5251 56.3521 89.305 58.3074 89.305C59.5622 89.305 62.393 87.0811 64.4358 84.5096L66.2743 82.1814L66.07 83.6062C65.749 86.0733 67.4708 88.61 69.4844 88.61C70.4766 88.61 73.8035 84.2664 77.4513 78.1853C81.3618 71.6525 81.3035 70.471 77.3054 76.3436C75.8171 78.6023 74.0369 81.139 73.3949 81.9729C72.1984 83.5714 69.9221 85.4826 69.2509 85.4826C68.5506 85.4826 68.8716 83.2934 69.9221 80.8262C70.7101 79.0193 73.9494 72.5212 74.8541 70.9923C74.8832 70.9228 75.7004 70.7838 76.6634 70.6795C79.2607 70.332 79.465 70.054 78.0934 68.6641L76.9552 67.4826L77.9766 65.8146C78.5311 64.8764 79.2899 63.5212 79.64 62.7915L80.3113 61.471L79.64 60.3243C79.2899 59.6988 78.5603 59.0038 78.0642 58.7606C76.9844 58.3089 77.0136 58.3089 76.4883 58.6911ZM63.9105 72.834C63.9105 73.4247 61.926 76.3089 60.2042 78.1853C57.0525 81.5907 56.5856 81.6602 57.9572 78.498C58.8327 76.4131 60.9046 73.8417 62.247 73.1467C63.2393 72.6255 63.9105 72.4865 63.9105 72.834Z" fill="white"/>
<path d="M121.547 66.7181C119.095 68.1428 118.074 70.888 119.358 72.5212C120.263 73.7027 121.051 73.8417 121.839 72.9729C122.626 72.0695 123.327 72.3127 122.86 73.3204C122.481 74.1892 122.481 74.3629 123.006 74.3629C123.356 74.3629 123.327 74.6756 122.743 76.0309C120.467 81.3822 119.27 88.193 120.379 89.305C122.276 91.1814 126.099 87.359 131.615 78.1505C133.22 75.4401 134.533 73.0077 134.533 72.7297C134.533 72.0695 133.862 72.1737 133.453 72.9382C132.053 75.6139 124.465 85.4826 123.823 85.4826C123.21 85.4826 123.385 83.7104 124.202 81.7992C124.64 80.7915 125.778 78.6718 126.77 77.0733C127.792 75.5096 128.697 73.9112 128.784 73.5637C129.018 72.7992 128.259 72 126.625 71.2355C125.982 70.9227 125.457 70.5753 125.457 70.4363C125.457 70.2973 125.545 69.498 125.661 68.6293C125.778 67.5868 125.72 66.8919 125.486 66.5444C124.99 65.8146 122.947 65.9189 121.547 66.7181Z" fill="white"/>
<path d="M37.5 67.0309C36.4786 67.5521 32.3055 73.3552 31.1965 75.8224C30.6421 77.0386 31.1674 76.4131 32.5681 74.1892C34.0565 71.861 34.7277 71.3745 34.7277 72.6602C34.7277 73.3552 31.8969 78.5328 29.8541 81.5212C28.8327 83.0154 28.6868 84.0927 29.2121 85.7259C29.9417 88.0193 32.5973 90.139 34.2899 89.7567C36.4786 89.2355 39.2218 86.4208 42.3444 81.417C43.6868 79.2625 43.9495 78.6718 43.5701 78.4981C43.2491 78.3591 42.1693 79.4363 40.1557 81.834C36.9164 85.7259 35.1654 86.9768 33.3561 86.8031C32.4514 86.7336 32.2179 86.5598 32.1596 85.8996C31.8969 83.8842 34.786 77.1429 36.0117 76.8649C36.4786 76.7259 36.537 76.8649 36.3619 77.9421C36.1576 79.2278 36.4786 79.888 37.7043 80.6525C38.4047 81.1042 38.3463 81.139 38.93 79.4015C39.1927 78.6371 40.0681 76.8301 40.8853 75.3707L42.3444 72.7297L41.7024 70.3668C40.8269 67.2741 39.3969 66.1274 37.5 67.0309Z" fill="white"/>
<path d="M96.0117 67.9691C94.0273 69.9845 91.43 75.1621 90.1752 79.6795C89.358 82.7027 89.2705 86.3861 90.0001 87.7065C91.6051 90.6602 94.5818 89.2702 97.9086 83.9884C99.0467 82.2162 99.4553 81.7992 100.36 81.6254C100.944 81.5212 101.702 81.3127 102.023 81.1737C102.636 80.9305 102.665 81 102.52 83.8146C102.374 86.4208 102.432 86.8031 103.016 87.637C103.366 88.193 103.92 88.61 104.3 88.61C105.088 88.61 107.247 87.0115 108.385 85.5521L109.232 84.4749L109.874 86.1428C110.516 87.776 111.508 88.9575 112.267 88.9575C112.967 88.9575 114.747 86.7336 117.198 82.8417C118.541 80.6872 119.65 78.8455 119.65 78.7065C119.65 78.6023 119.475 78.5328 119.241 78.5328C119.008 78.5328 118.774 78.359 118.716 78.1505C118.658 77.9073 117.724 78.9845 116.644 80.5135C115.593 82.0424 114.251 83.7104 113.667 84.2316L112.646 85.1698V84.2664C112.646 83.1197 114.047 79.5405 115.827 76.1351C117.578 72.7992 117.665 72.5212 117.14 71.6525C116.732 70.9575 115.127 70.193 114.047 70.193C113.492 70.193 111.391 74.9884 110.341 78.6023C108.969 83.3629 105.146 87.6718 104.825 84.8571C104.65 83.3629 105.642 80.861 108.385 75.9614C111.595 70.2278 111.741 69.776 110.837 69.0115C109.874 68.2123 107.247 68.2818 106.547 69.1158C105.963 69.8108 103.774 76.2046 103.949 76.7606C103.979 76.9691 104.796 76.0309 105.73 74.6756C107.306 72.4865 108.269 71.6872 108.269 72.6254C108.269 73.5637 104.825 79.0888 103.483 80.305C102.957 80.7567 102.928 80.722 103.103 79.332L103.307 77.8726L102.52 78.3938C101.732 78.8455 100.973 79.0193 100.973 78.7413C100.973 78.637 101.44 77.4903 101.994 76.1698C103.512 72.6254 103.599 71.6177 102.432 70.2625C101.936 69.637 101.235 69.1505 100.885 69.1505C100.535 69.1505 99.8055 68.6641 99.251 68.1081C98.0253 66.8224 97.2082 66.7876 96.0117 67.9691ZM97.2958 75.3011C97.179 75.6486 97.0623 76.8648 97.0331 78.0115C97.0039 79.8185 96.8288 80.444 95.8658 82.2857C94.4942 84.9266 92.5973 87.1158 92.1304 86.5598C91.2257 85.4826 93.4728 78.9498 95.6323 76.2741C96.9164 74.6756 97.7335 74.2239 97.2958 75.3011Z" fill="white"/>
<path d="M23.755 67.8648C19.9612 70.5058 16.0215 79.0193 16.4009 83.7452C16.6635 86.9073 19.2608 89.583 21.6538 89.2008C24.1927 88.7838 28.1032 84.5791 28.9495 81.3475L29.4456 79.471L27.0526 82.3204C23.3756 86.6988 20.1363 88.1235 19.4651 85.7258C19.0857 84.3359 19.4067 83.2239 20.3406 82.7374C21.1577 82.3204 25.5935 78.8803 26.6732 77.8378C26.9943 77.5598 27.8697 76.6216 28.6577 75.7876C30.4962 73.8069 30.5254 72.6255 28.7744 71.2007C28.1616 70.7143 27.2861 69.6718 26.8775 68.9421C26.0312 67.4479 24.8931 67.0656 23.755 67.8648ZM26.8483 72.9035C26.8483 73.0772 26.4398 73.9459 25.9437 74.8494C24.9806 76.5868 20.7783 81.0347 20.3697 80.7567C19.9904 80.4787 21.5371 77.2123 22.8503 75.5096C24.3678 73.5289 26.8483 71.9305 26.8483 72.9035Z" fill="white"/>
</svg>
