<svg width="27" height="28" viewBox="0 0 27 28" fill="none" xmlns="http://www.w3.org/2000/svg">
<path d="M26.9426 20.9467C26.8662 20.7166 26.3803 20.3775 25.4852 19.9304C25.2427 19.7895 24.8972 19.5979 24.4501 19.355C24.0027 19.112 23.5965 18.8881 23.2324 18.6835C22.8675 18.4789 22.5257 18.2807 22.2063 18.0892C22.1553 18.0509 21.9955 17.9391 21.727 17.7533C21.4583 17.5681 21.2316 17.4305 21.0459 17.3409C20.8606 17.2517 20.6783 17.2068 20.4993 17.2068C20.2436 17.2068 19.9243 17.3892 19.5409 17.7533C19.1575 18.118 18.8058 18.514 18.4864 18.9428C18.1669 19.3713 17.828 19.7674 17.4704 20.1318C17.1123 20.4964 16.818 20.6785 16.5881 20.6785C16.4727 20.6785 16.3289 20.6463 16.1564 20.5828C15.9841 20.5189 15.853 20.4642 15.763 20.4201C15.6738 20.375 15.5207 20.2858 15.3032 20.1511C15.0853 20.0168 14.9641 19.9432 14.9386 19.9304C13.1872 18.9584 11.6851 17.846 10.4321 16.5933C9.17945 15.3399 8.06701 13.8378 7.09541 12.0859C7.08265 12.0603 7.00897 11.9388 6.87483 11.7216C6.74049 11.5041 6.65096 11.3509 6.60622 11.2611C6.56149 11.1717 6.50715 11.0406 6.44334 10.868C6.37953 10.6954 6.34749 10.5517 6.34749 10.4365C6.34749 10.2065 6.52972 9.91223 6.89411 9.55418C7.25843 9.19633 7.65486 8.85735 8.08299 8.53792C8.51146 8.2185 8.90749 7.86676 9.27194 7.48331C9.63626 7.09967 9.81843 6.78017 9.81843 6.5245C9.81843 6.3456 9.77369 6.16322 9.68429 5.97788C9.59482 5.79213 9.45739 5.56548 9.27194 5.29684C9.08642 5.02833 8.97459 4.86865 8.93617 4.81726C8.7446 4.49783 8.54666 4.15584 8.34186 3.7914C8.13706 3.42703 7.91353 3.02088 7.67051 2.57342C7.4277 2.12615 7.23606 1.7808 7.09528 1.53788C6.64807 0.643019 6.30934 0.156926 6.07915 0.0804788C5.98962 0.0421207 5.85528 0.0227737 5.67648 0.0227737C5.3311 0.0227737 4.88053 0.0865919 4.32444 0.214631C3.76815 0.342469 3.33042 0.476554 3.01076 0.617424C2.37152 0.885796 1.69399 1.66572 0.977973 2.95693C0.325969 4.15859 0 5.34796 0 6.52416C0 6.86911 0.0223671 7.20473 0.0671013 7.53108C0.111836 7.85709 0.191766 8.22475 0.30696 8.63399C0.421953 9.0431 0.514712 9.347 0.584836 9.54491C0.655027 9.74294 0.786073 10.0977 0.977906 10.6093C1.16947 11.1208 1.28466 11.4339 1.32302 11.549C1.77043 12.8021 2.30099 13.9208 2.91458 14.9054C3.92412 16.542 5.30181 18.2333 7.04685 19.9787C8.79195 21.724 10.4827 23.1018 12.1192 24.1118C13.1036 24.7254 14.2225 25.256 15.4753 25.7038C15.5904 25.7419 15.9035 25.8569 16.4147 26.0491C16.9261 26.2409 17.281 26.3719 17.479 26.4423C17.6771 26.5127 17.981 26.6055 18.3897 26.7207C18.7993 26.8359 19.1666 26.9159 19.4926 26.9609C19.8187 27.0051 20.1544 27.0278 20.4994 27.0278C21.6753 27.0278 22.8646 26.7016 24.0663 26.0496C25.3573 25.3338 26.1369 24.656 26.4054 24.0162C26.5465 23.6969 26.6803 23.259 26.8081 22.7026C26.9363 22.1465 27 21.6959 27 21.3506C27.0004 21.171 26.9811 21.037 26.9426 20.9467Z" fill="white"/>
</svg>
