<svg width="25" height="25" viewBox="0 0 25 25" fill="none" xmlns="http://www.w3.org/2000/svg">
<path d="M24.9468 19.3704C24.8761 19.1573 24.4262 18.8435 23.5974 18.4295C23.3729 18.2991 23.053 18.1217 22.639 17.8968C22.2247 17.6719 21.8486 17.4646 21.5115 17.2752C21.1736 17.0858 20.8571 16.9023 20.5614 16.725C20.5141 16.6895 20.3662 16.5861 20.1176 16.4141C19.8688 16.2426 19.6589 16.1153 19.487 16.0323C19.3154 15.9497 19.1466 15.9082 18.9808 15.9082C18.7441 15.9082 18.4485 16.077 18.0935 16.4141C17.7385 16.7517 17.4128 17.1183 17.117 17.5152C16.8212 17.9119 16.5074 18.2786 16.1763 18.616C15.8447 18.9535 15.5722 19.1221 15.3594 19.1221C15.2525 19.1221 15.1193 19.0923 14.9597 19.0335C14.8001 18.9744 14.6787 18.9237 14.5953 18.8828C14.5128 18.8411 14.371 18.7585 14.1696 18.6338C13.9679 18.5095 13.8557 18.4414 13.832 18.4295C12.2104 17.5297 10.8195 16.4999 9.65933 15.3402C8.49949 14.1799 7.46945 12.7893 6.56983 11.1675C6.55801 11.1438 6.48978 11.0313 6.36558 10.8302C6.2412 10.6289 6.15829 10.487 6.11687 10.4039C6.07545 10.3212 6.02514 10.1998 5.96606 10.04C5.90697 9.88025 5.87731 9.74716 5.87731 9.64051C5.87731 9.42757 6.04604 9.15518 6.38343 8.82372C6.72077 8.49243 7.08783 8.17863 7.48425 7.88292C7.88098 7.58721 8.24767 7.26159 8.58513 6.90661C8.92247 6.55145 9.09113 6.25568 9.09113 6.01898C9.09113 5.85337 9.04971 5.68453 8.96693 5.51295C8.88409 5.341 8.75685 5.13117 8.58513 4.88248C8.41335 4.6339 8.3098 4.48608 8.27423 4.43851C8.09685 4.1428 7.91357 3.82619 7.72394 3.48881C7.53432 3.1515 7.32734 2.7755 7.10232 2.36126C6.8775 1.94721 6.70006 1.62749 6.5697 1.40262C6.15562 0.574193 5.84198 0.124192 5.62885 0.0534205C5.54594 0.0179105 5.42156 0 5.256 0C4.9362 0 4.51901 0.0590797 4.00411 0.177612C3.48903 0.295958 3.08372 0.420088 2.78774 0.550499C2.19585 0.798945 1.56851 1.52096 0.905531 2.7163C0.301823 3.82874 0 4.9298 0 6.01867C0 6.33801 0.0207103 6.64871 0.0621309 6.95083C0.103551 7.25263 0.177561 7.59299 0.284222 7.97185C0.390697 8.35058 0.476585 8.63192 0.541515 8.81513C0.606507 8.99847 0.727845 9.32689 0.905469 9.80052C1.08284 10.274 1.1895 10.5639 1.22502 10.6704C1.63928 11.8305 2.13055 12.8661 2.69868 13.7776C3.63344 15.2927 4.90908 16.8584 6.52486 18.4742C8.1407 20.0899 9.70622 21.3654 11.2215 22.3005C12.1329 22.8685 13.169 23.3597 14.329 23.7743C14.4356 23.8096 14.7255 23.916 15.1988 24.094C15.6723 24.2715 16.0009 24.3928 16.1843 24.4579C16.3677 24.5231 16.6491 24.609 17.0275 24.7157C17.4068 24.8223 17.7469 24.8963 18.0487 24.9381C18.3507 24.9789 18.6615 25 18.9809 25C20.0698 25 21.171 24.698 22.2837 24.0944C23.4789 23.4317 24.2008 22.8043 24.4494 22.212C24.5801 21.9163 24.704 21.5109 24.8223 20.9959C24.941 20.4811 25 20.064 25 19.7443C25.0004 19.578 24.9825 19.454 24.9468 19.3704Z" fill="white"/>
</svg>
