<svg width="18" height="19" viewBox="0 0 18 19" fill="none" xmlns="http://www.w3.org/2000/svg">
<path d="M17.9617 13.9902C17.9108 13.8368 17.5869 13.6108 16.9901 13.3127C16.8285 13.2188 16.5981 13.0911 16.3001 12.9292C16.0018 12.7672 15.731 12.618 15.4883 12.4816C15.245 12.3453 15.0171 12.2132 14.8042 12.0855C14.7702 12.0599 14.6636 11.9855 14.4847 11.8616C14.3055 11.7381 14.1544 11.6465 14.0306 11.5867C13.9071 11.5273 13.7855 11.4974 13.6662 11.4974C13.4958 11.4974 13.2829 11.6189 13.0273 11.8616C12.7717 12.1047 12.5372 12.3687 12.3243 12.6544C12.1112 12.9401 11.8853 13.2041 11.6469 13.447C11.4082 13.69 11.212 13.8114 11.0588 13.8114C10.9818 13.8114 10.8859 13.7899 10.771 13.7476C10.6561 13.705 10.5687 13.6685 10.5086 13.6391C10.4492 13.6091 10.3471 13.5496 10.2021 13.4598C10.0569 13.3703 9.97609 13.3213 9.95907 13.3127C8.79146 12.6649 7.79007 11.9234 6.95472 11.0884C6.11963 10.253 5.378 9.25176 4.73028 8.08408C4.72177 8.06702 4.67264 7.98602 4.58322 7.84122C4.49366 7.69628 4.43397 7.59414 4.40415 7.53432C4.37433 7.47472 4.3381 7.38732 4.29556 7.27229C4.25302 7.15726 4.23166 7.06144 4.23166 6.98465C4.23166 6.83133 4.35315 6.63521 4.59607 6.39656C4.83895 6.15803 5.10324 5.93209 5.38866 5.71918C5.67431 5.50627 5.93832 5.27182 6.18129 5.01624C6.42418 4.76052 6.54562 4.54757 6.54562 4.37715C6.54562 4.25791 6.51579 4.13634 6.45619 4.0128C6.39655 3.889 6.30493 3.73792 6.18129 3.55886C6.05761 3.37989 5.98306 3.27346 5.95744 3.2392C5.82973 3.02629 5.69777 2.79834 5.56124 2.55543C5.42471 2.31256 5.27568 2.04184 5.11367 1.74359C4.9518 1.44547 4.82404 1.21527 4.73019 1.05336C4.43205 0.456899 4.20623 0.132898 4.05277 0.0819427C3.99308 0.0563755 3.90352 0.0434799 3.78432 0.0434799C3.55407 0.0434799 3.25369 0.0860173 2.88296 0.171361C2.5121 0.25657 2.22028 0.345943 2.00717 0.439839C1.58101 0.61872 1.12933 1.13857 0.651982 1.99922C0.217313 2.80017 0 3.59294 0 4.37692C0 4.60685 0.0149114 4.83055 0.0447342 5.04807C0.074557 5.26537 0.127844 5.51043 0.20464 5.78321C0.281302 6.0559 0.343142 6.25847 0.389891 6.39038C0.436685 6.52238 0.524049 6.75884 0.651938 7.09986C0.779647 7.44078 0.856443 7.64948 0.882012 7.72619C1.18029 8.56144 1.53399 9.3071 1.94305 9.96339C2.61608 11.0542 3.53454 12.1816 4.6979 13.3449C5.8613 14.5082 6.98848 15.4266 8.07948 16.0998C8.73571 16.5088 9.48169 16.8625 10.3169 17.1609C10.3936 17.1864 10.6023 17.263 10.9431 17.3911C11.2841 17.5189 11.5207 17.6063 11.6527 17.6532C11.7847 17.7001 11.9873 17.762 12.2598 17.8388C12.5329 17.9156 12.7777 17.9688 12.995 17.9989C13.2125 18.0283 13.4363 18.0435 13.6662 18.0435C14.4502 18.0435 15.2431 17.826 16.0442 17.3914C16.9048 16.9143 17.4246 16.4626 17.6036 16.0361C17.6977 15.8233 17.7868 15.5314 17.8721 15.1605C17.9575 14.7899 18 14.4895 18 14.2594C18.0003 14.1397 17.9874 14.0503 17.9617 13.9902Z" fill="white"/>
</svg>
