<svg width="14" height="15" viewBox="0 0 14 15" fill="none" xmlns="http://www.w3.org/2000/svg">
<path d="M13.9702 10.8909C13.9306 10.7716 13.6787 10.5958 13.2146 10.364C13.0888 10.2909 12.9097 10.1917 12.6779 10.0657C12.4458 9.93973 12.2352 9.82365 12.0464 9.71757C11.8572 9.61153 11.68 9.50879 11.5144 9.4095C11.4879 9.38962 11.4051 9.3317 11.2659 9.23537C11.1265 9.13932 11.009 9.06804 10.9127 9.02154C10.8166 8.97533 10.7221 8.95206 10.6293 8.95206C10.4967 8.95206 10.3311 9.04658 10.1323 9.23537C9.93354 9.42441 9.75118 9.62974 9.58553 9.852C9.41986 10.0742 9.24415 10.2795 9.05872 10.4684C8.87302 10.6574 8.72044 10.7518 8.60126 10.7518C8.54142 10.7518 8.46682 10.7352 8.37742 10.7022C8.28805 10.6691 8.22006 10.6407 8.17339 10.6179C8.12714 10.5945 8.04777 10.5482 7.93499 10.4784C7.82201 10.4088 7.75918 10.3707 7.74595 10.364C6.8378 9.86012 6.05894 9.2834 5.40922 8.634C4.75972 7.98422 4.18289 7.20547 3.6791 6.29728C3.67249 6.28401 3.63428 6.22101 3.56473 6.10839C3.49507 5.99565 3.44865 5.91622 3.42545 5.86969C3.40225 5.82334 3.37408 5.75535 3.34099 5.66589C3.3079 5.57642 3.29129 5.50189 3.29129 5.44217C3.29129 5.32292 3.38578 5.17038 3.57472 4.98476C3.76363 4.79924 3.96919 4.62351 4.19118 4.45791C4.41335 4.29232 4.6187 4.10997 4.80767 3.91118C4.99658 3.71229 5.09103 3.54666 5.09103 3.41411C5.09103 3.32137 5.06784 3.22682 5.02148 3.13073C4.97509 3.03444 4.90383 2.91693 4.80767 2.77767C4.71148 2.63847 4.65349 2.55569 4.63357 2.52904C4.53424 2.36345 4.4316 2.18615 4.32541 1.99722C4.21922 1.80832 4.10331 1.59776 3.9773 1.36579C3.8514 1.13392 3.75203 0.954875 3.67903 0.828945C3.44715 0.365028 3.27151 0.113027 3.15215 0.0733954C3.10573 0.0535098 3.03607 0.0434799 2.94336 0.0434799C2.76427 0.0434799 2.53065 0.0765646 2.2423 0.142943C1.95386 0.209217 1.72688 0.278729 1.56114 0.351759C1.22968 0.490889 0.878365 0.895218 0.507097 1.56461C0.169021 2.18757 0 2.80417 0 3.41394C0 3.59277 0.0115978 3.76676 0.0347933 3.93594C0.0579888 4.10495 0.0994343 4.29556 0.159164 4.50771C0.21879 4.71981 0.266888 4.87736 0.303248 4.97995C0.339644 5.08262 0.407593 5.26654 0.507063 5.53177C0.606392 5.79694 0.666123 5.95926 0.686009 6.01892C0.917999 6.66856 1.19311 7.24852 1.51126 7.75896C2.03473 8.60739 2.74909 9.48421 3.65392 10.3891C4.55879 11.2938 5.43548 12.0081 6.28404 12.5318C6.79444 12.8499 7.37464 13.1249 8.02422 13.3571C8.08392 13.3768 8.24625 13.4364 8.51133 13.5361C8.77651 13.6355 8.96051 13.7034 9.06318 13.7399C9.16589 13.7764 9.32349 13.8245 9.53542 13.8843C9.7478 13.944 9.93824 13.9854 10.1073 14.0088C10.2764 14.0317 10.4504 14.0435 10.6293 14.0435C11.2391 14.0435 11.8557 13.8744 12.4788 13.5363C13.1482 13.1652 13.5525 12.8139 13.6917 12.4822C13.7649 12.3166 13.8342 12.0896 13.9005 11.8012C13.967 11.5129 14 11.2793 14 11.1003C14.0002 11.0072 13.9902 10.9377 13.9702 10.8909Z" fill="white"/>
</svg>
